<svg width="192" height="192" viewBox="0 0 192 192" fill="none" xmlns="http://www.w3.org/2000/svg">
  <rect width="192" height="192" rx="48" fill="#10b981"/>
  <path d="M96 40C76.1177 40 60 56.1177 60 76C60 95.8823 76.1177 112 96 112C115.882 112 132 95.8823 132 76C132 56.1177 115.882 40 96 40Z" fill="white"/>
  <path d="M96 120C96 120 72 108 72 84C72 78.4772 76.4772 74 82 74C87.5228 74 92 78.4772 92 84C92 86.2091 93.7909 88 96 88C98.2091 88 100 86.2091 100 84C100 78.4772 104.477 74 110 74C115.523 74 120 78.4772 120 84C120 108 96 120 96 120Z" fill="#10b981"/>
  <circle cx="96" cy="76" r="8" fill="#10b981"/>
</svg>