<svg width="512" height="512" viewBox="0 0 512 512" fill="none" xmlns="http://www.w3.org/2000/svg">
  <rect width="512" height="512" rx="128" fill="#10b981"/>
  <path d="M256 106.667C218.98 106.667 189 136.647 189 173.667C189 210.687 218.98 240.667 256 240.667C293.02 240.667 323 210.687 323 173.667C323 136.647 293.02 106.667 256 106.667Z" fill="white"/>
  <path d="M256 320C256 320 192 288 192 224C192 210.745 201.745 200 216 200C230.255 200 240 210.745 240 224C240 229.523 245.477 235 251 235C256.523 235 262 229.523 262 224C262 210.745 271.745 200 286 200C300.255 200 310 210.745 310 224C310 288 256 320 256 320Z" fill="#10b981"/>
  <circle cx="256" cy="173.667" r="21.333" fill="#10b981"/>
</svg>